<?xml version="1.0" encoding="utf-8"?>
<svg version="1.1" xmlns:xlink="http://www.w3.org/1999/xlink" width="45px" height="45px" xmlns="http://www.w3.org/2000/svg">
  <g transform="matrix(1 0 0 1 -95 -197 )">
    <path d="M 23.5801630279541 2.56793477783205  L 20.4008151992799 3.05706522216795  C 18.8111413146972 3.05706522216795  19.0760869125366 3.54619566650394  18.28125 3.54619566650394  C 17.4864130279541 3.66847827758782  18.4137228286743 3.42391305541987  15.8967391433716 3.91304349975586  C 13.3797554580688 4.40217394409176  12.5849184860229 7.33695655517583  12.4524456573486 8.31521738891603  C 12.3199728286744 9.41576088867189  12.3199728286744 12.4728261108398  12.3199728286744 14.0625  C 12.5849184860229 15.0407608886719  11.790081513977 15.0407608886719  11.790081513977 15.0407608886719  C 10.3328803985595 14.9184782775878  10.9952445419311 19.1983696105958  10.9952445419311 19.1983695556641  C 11.2601901992799 20.2989130554199  10.8627717132568 20.7880434448242  13.1148098007203 21.6440217224122  C 14.1745924301148 24.3342391113281  16.8240489440918 25.8016304443359  16.8240488845825 25.8016304443359  C 16.8240488250732 25.8016304443359  16.9565217132568 27.5135869445801  16.9565217132568 28.8586956665039  C 16.6915760559082 28.7364130554199  17.6188858566284 32.0380434997558  10.8627717132568 33.0163043334961  C 3.97418474121083 33.9945652221679  2.64945651397703 35.9510869445801  1.32472828674323 37.1739130554199  C 0 38.2744565551757  0.132472828674314 43.5326087219239  0.132472828674314 43  L 44.3783967132568 43  C 44.3783967132568 43.5326087219239  44.1134510559082 38.2744565551758  42.7887228286743 37.1739130554199  C 41.4639945419312 36.0733695556641  40.1392663146972 33.9945652221679  33.2506793426514 33.0163043334961  C 26.3620923706055 32.0380434448242  27.5543478286743 28.8586956115722  27.5543478286743 28.6141304443359  C 27.5543478286743 28.125  27.819293486023 26.0461956665039  27.819293486023 26.0461956665039  C 27.819293486023 26.0461956665039  30.071331513977 24.3342391662598  31.1311141433716 21.6440217224122  C 32.8532608566284 20.6657608337403  33.3831521713256 20.5434782226562  33.6480978286743 19.4429347778321  C 33.6480978286743 19.4429347778321  34.1779891433716 15.2853260559082  32.4558423706054 15.2853261108398  C 32.4558423706054 15.2853261108398  31.6610053985595 15.4076087219238  31.9259511154175 14.4293478332519  C 32.1908967727661 13.4510869445801  32.0584239440918 10.3940217224122  31.9259511154175 9.29347827758782  C 31.7934782867431 8.19293477783205  32.1908967727661 5.13586955566401  29.673913027954 4.64673911132811  C 27.9517663146973 4.40217388916016  27.819293486023 4.76902172241218  26.8919836853028 4.64673911132811  C 26.0971467132568 4.52445650024414  25.0373641433716 2.56793477783205  23.5801630279541 2.56793477783205  Z " fill-rule="nonzero" fill="#283c82" stroke="none" transform="matrix(1 0 0 1 95 197 )" />
  </g>
</svg>