<?xml version="1.0" encoding="utf-8"?>
<svg version="1.1" xmlns:xlink="http://www.w3.org/1999/xlink" width="18px" height="18px" xmlns="http://www.w3.org/2000/svg">
  <g transform="matrix(1 0 0 1 -711 -19 )">
    <path d="M 9.689484375 0  C 10.255078125 0  13.326046875 0.238078124971607  15.0755625 1.81012499978413  C 17.226140625 3.74245312455368  17.86190625 7.40010937411748  17.5989375 8.76318749895492  C 16.570828125 14.095124998319  11.807015625 14.4739687482739  11.807015625 14.7552187482403  C 11.807015625 14.9032968732227  12.17728125 15.6083906231386  12.917671875 16.8704999979881  C 12.9852040423251 16.9855873334235  13.0208067428787 17.1166089179702  13.0208067428787 17.2500468750894  C 13.0208067428787 17.6642345490655  12.6850412919041 18  12.2708536178787 18  L 7.10578125 17.9999999978534  C 6.75869149691572 17.9999280829393  6.45698257964248 17.7617368324888  6.376359375 17.424140622922  C 5.9900625 15.805968748115  5.193421875 14.7906562482361  3.98615625 14.3782031232853  C 1.969453125 13.6891406233675  0.7205625 12.9875624984511  0.457453125000001 12.1487343735512  C 0.281953125 11.5896093736179  0.547031250000001 10.539984373743  1.25240625 8.99999999892668  C 0.5473125 8.23443749901798  0.282375 7.68684374908328  0.457453125 7.35721874912259  C 0.72 6.86278124918156  2.3416875 5.84268749930321  3.570890625 4.70699999943865  C 3.6871875 2.77565624966898  4.999640625 1.30148437484479  7.508390625 0.284343749966089  C 8.13740625 0.0947812499886966  8.8644375 0  9.68934375 0  Z M 7.6708125 1.90378124977296  C 7.65683772325499 1.72652806253758  7.50185244898181 1.59414218448817  7.32459375 1.60804687480823  C 7.15677968551979 1.62072852993324  7.02708916298129 1.76058951332257  7.02708916298129 1.92888206992375  C 7.02708916298129 1.93702392243885  7.02739820612255 1.9451628412834  7.028015625 1.95328124976706  C 7.168640625 3.76762499955068  7.740703125 5.09048437439292  8.757703125 5.90104687429625  C 8.879484375 5.99807812428468  9.029953125 6.0884999992739  9.225703125 6.18792187426204  C 9.385453125 6.26892187425238  10.048359375 6.57056249921641  10.196578125 6.64326562420774  L 10.351546875 6.72131249919843  C 10.65009375 6.87614062417997  10.88325 7.02449999916227  11.07478125 7.18790624914279  C 12.650765625 8.53298437398237  12.6658125 10.0749374987985  10.4619375 11.7359999986004  L 10.371515625 11.8042031235923  L 10.3438125 11.9138906235792  L 10.323 12.0144374985672  C 10.25578125 12.426890623518  10.379953125 12.9599999984544  10.67878125 13.6304999983745  C 10.7513849218153 13.7929028830416  10.9417541157173 13.8658798377343  11.1043125 13.793624998355  C 11.2205749779969 13.7422377252923  11.2955711232107 13.6270947885424  11.2955711232107 13.499982178548  C 11.2955711232107 13.4550276441994  11.2861301202004 13.4105741999  11.267859375 13.3694999984056  L 11.20865625 13.2323906234219  C 11.021625 12.7857656234752  10.9389375 12.4385624985166  10.950609375 12.200624998545  L 10.953421875 12.1692656235487  L 11.13271875 12.0272343735657  C 13.38890625 10.1771718737863  13.30115625 8.24203124901707  11.49384375 6.69951562420103  C 11.2224375 6.46776562422867  10.900125 6.27201562425201  10.48134375 6.06642187427653  C 10.349578125 6.00173437428424  9.885234375 5.78967187430953  9.64153125 5.67449999932327  L 9.51778125 5.61487499933038  C 9.35775 5.53359374934007  9.24159375 5.46370312434841  9.160171875 5.39887499935614  C 8.299546875 4.71276562443796  7.798640625 3.55485937457605  7.6708125 1.90378124977296  Z M 9.436078125 10.0027968738071  C 9.27943696453382 9.91854796563702  9.08415949848389 9.97691108591809  8.9994375 10.1332968737915  C 8.45296875 11.1452343736708  7.676859375 11.7255937486016  6.6515625 11.8972968735812  C 6.49647228596677 11.9230557145846  6.3827647617665 12.0572065344333  6.3827647617665 12.2144213313609  C 6.3827647617665 12.232226969736  6.38424409599635 12.2500018285378  6.3871875 12.267562498537  C 6.41698859717518 12.4428321729592  6.58313348681935 12.5608328047946  6.7584375 12.5312343735056  C 7.985390625 12.32592187353  8.928421875 11.6205468736142  9.567140625 10.4381718737552  C 9.59241685095271 10.3913300697054  9.605650364516 10.3389388222292  9.605650364516 10.2857124922327  C 9.605650364516 10.1674207382807  9.54060142604613 10.0587122907269  9.436359375 10.0027968738071  Z " fill-rule="nonzero" fill="#1890ff" stroke="none" transform="matrix(1 0 0 1 711 19 )" />
  </g>
</svg>