<?xml version="1.0" encoding="utf-8"?>
<svg version="1.1" xmlns:xlink="http://www.w3.org/1999/xlink" width="18px" height="18px" xmlns="http://www.w3.org/2000/svg">
  <g transform="matrix(1 0 0 1 -554 -112 )">
    <path d="M 17.6103174193548 15.9963525  L 10.3719658064516 8.98396875  L 17.6103174193548 1.9717003125  C 17.9757464516129 1.61780625  17.9757464516129 1.0342096875  17.6103174193548 0.680200312499999  L 17.5709177419355 0.641916562499999  C 17.2054887096774 0.288022499999999  16.603185483871 0.288022499999999  16.2376374193548 0.641916562499999  L 8.99928580645162 7.6637559375  L 1.76081516129032 0.641916562499999  C 1.39538612903226 0.288022499999999  0.792963870967744 0.288022499999999  0.427653870967743 0.641916562499999  L 0.388135161290325 0.680200312499999  C 0.208232316965417 0.84984642888639  0.10675189991455 1.08273511952916  0.10675189991455 1.3259503125  C 0.10675189991455 1.56916550547083  0.208232316965418 1.80205419611361  0.388135161290324 1.9717003125  L 7.62660580645161 8.98396875  L 0.388135161290321 15.9963525  C 0.0228251612903218 16.3502465625  0.0228251612903218 16.9339584375  0.388135161290321 17.2877371875  L 0.427653870967741 17.3260209375  C 0.792963870967741 17.6800303125  1.39538612903226 17.6800303125  1.76081516129032 17.3260209375  L 8.99928580645161 10.3137525  L 16.2376374193548 17.3260209375  C 16.603185483871 17.6800303125  17.2054887096774 17.6800303125  17.5709177419355 17.3260209375  L 17.6103174193548 17.2877371875  C 17.9757464516129 16.9339584375  17.9757464516129 16.3502465625  17.6103174193548 15.9963525  Z " fill-rule="nonzero" fill="#fffefe" stroke="none" transform="matrix(1 0 0 1 554 112 )" />
  </g>
</svg>